Coordinates
version=1
nRows=17
nColumns=24
inDegrees=yes

Units are S.I. units (second, meters, Newtons, ...)
Angles are in degrees.

endheader
time	pelvis_tilt	pelvis_list	pelvis_rotation	pelvis_tx	pelvis_ty	pelvis_tz	hip_flexion_r	hip_adduction_r	hip_rotation_r	knee_angle_r	ankle_angle_r	subtalar_angle_r	mtp_angle_r	hip_flexion_l	hip_adduction_l	hip_rotation_l	knee_angle_l	ankle_angle_l	subtalar_angle_l	mtp_angle_l	lumbar_extension	lumbar_bending	lumbar_rotation
      1.37000000	     -8.45730866	     -1.17104602	     -0.04592966	     -0.30796768	      1.28037652	     -0.94442083	     32.14617995	      3.47808909	      7.53227106	    -24.32632489	      0.80988971	    -21.08499309	      2.21331279	      0.51716689	      6.42521141	     13.72830661	     -4.25056449	      6.37090208	    -14.35492595	      3.30993771	     -0.30408188	      0.43815181	     -3.91912496
      1.37500000	     -8.62320389	     -0.96255603	     -0.43023897	     -0.30238908	      1.27938574	     -0.94336574	     32.38871649	      3.56693430	      8.60233818	    -22.92074683	      0.61579886	    -21.08471753	      1.95390237	      0.16725093	      6.56363368	     12.89982711	     -4.04893699	      6.78847014	    -13.69201406	      3.56175021	     -0.08258562	      0.22190833	     -3.53000606
      1.38000000	     -8.78111775	     -0.75488617	     -0.80132221	     -0.29680222	      1.27837008	     -0.94231798	     32.58046386	      3.63979692	      9.66476404	    -21.46713084	      0.36911789	    -21.03388229	      1.70106354	     -0.18105407	      6.71031834	     12.07084552	     -3.86849352	      7.20607938	    -13.01147476	      3.82495706	      0.13588298	      0.00827363	     -3.13929040
      1.38500000	     -8.94230190	     -0.53721352	     -1.15675838	     -0.29117145	      1.27730019	     -0.94126741	     32.73783826	      3.68663358	     10.72939431	    -19.98388481	      0.14026440	    -20.94482394	      1.48204302	     -0.54071699	      6.87190108	     11.24574502	     -3.65801218	      7.58365072	    -12.34824019	      4.09061792	      0.36574073	     -0.21495264	     -2.78848757
      1.39000000	     -9.09712408	     -0.31811052	     -1.49002590	     -0.28552038	      1.27619859	     -0.94024437	     32.84466359	      3.70295844	     11.76713511	    -18.45276904	     -0.18786110	    -20.81058445	      1.28614949	     -0.88446659	      7.04806119	     10.42146172	     -3.49535439	      7.98340888	    -11.65736798	      4.37796659	      0.60101918	     -0.43905246	     -2.43244590
      1.39500000	     -9.26488292	     -0.08144438	     -1.81168230	     -0.27981717	      1.27502674	     -0.93921983	     32.94723171	      3.68571183	     12.79697840	    -16.93285588	     -0.49219911	    -20.60677574	      1.13526497	     -1.22957274	      7.24874864	      9.61643717	     -3.30453936	      8.33885839	    -11.02146781	      4.65409464	      0.86308621	     -0.67982102	     -2.11487690
      1.40000000	     -9.42344371	      0.16411264	     -2.10654885	     -0.27412537	      1.27382246	     -0.93822808	     33.02683780	      3.62973410	     13.77537491	    -15.42641346	     -0.83792257	    -20.32900056	      1.01457880	     -1.56642328	      7.46979967	      8.84621305	     -3.14559054	      8.68187458	    -10.40748574	      4.93106265	      1.11301910	     -0.92998226	     -1.80712519
      1.40500000	     -9.57723217	      0.42689792	     -2.38479378	     -0.26842289	      1.27258747	     -0.93725579	     33.10193740	      3.53599446	     14.69714028	    -13.96727500	     -1.11205692	    -19.95218792	      0.93219606	     -1.90884042	      7.71837488	      8.12436217	     -2.98008192	      8.90236392	     -9.90981477	      5.16082073	      1.37197447	     -1.20983889	     -1.42607112
      1.41000000	     -9.76269522	      0.67211381	     -2.63996656	     -0.26270267	      1.27129696	     -0.93626362	     33.19719138	      3.44765914	     15.59536411	    -12.53256874	     -1.54263616	    -19.66911222	      0.79523497	     -2.17074367	      7.94831900	      7.31358278	     -2.90687282	      9.36336369	     -9.11399610	      5.54513152	      1.65834379	     -1.45802835	     -1.20205039
      1.41500000	     -9.93681982	      0.92374701	     -2.88052537	     -0.25696578	      1.27000170	     -0.93532410	     33.29833053	      3.33663440	     16.40174718	    -11.19196860	     -1.86338026	    -19.27163835	      0.69036350	     -2.45584904	      8.19562772	      6.58201956	     -2.80963217	      9.67310072	     -8.52536693	      5.85408029	      1.94309164	     -1.71149521	     -0.92241206
      1.42000000	    -10.10705452	      1.18175504	     -3.10923758	     -0.25125122	      1.26869845	     -0.93439478	     33.41480641	      3.21581206	     17.16291899	     -9.94775407	     -2.12895840	    -18.82233560	      0.59255170	     -2.74163503	      8.45310612	      5.89524490	     -2.71030168	      9.94574286	     -7.97642086	      6.14711903	      2.21536728	     -1.96920632	     -0.67511514
      1.42500000	    -10.26909039	      1.42640092	     -3.32528836	     -0.24554154	      1.26740155	     -0.93347978	     33.53667094	      3.10426075	     17.83749434	     -8.79742012	     -2.37009770	    -18.34411115	      0.49666063	     -3.02608747	      8.70053005	      5.23086316	     -2.62799273	     10.19496735	     -7.47076916	      6.42214758	      2.48204009	     -2.21171430	     -0.43192456
      1.43000000	    -10.43509904	      1.64076017	     -3.52280926	     -0.23975903	      1.26613048	     -0.93261563	     33.65744450	      3.01362756	     18.38719301	     -7.72518574	     -2.57932552	    -17.86474591	      0.41382541	     -3.29859693	      8.92211615	      4.57888676	     -2.56940296	     10.39566712	     -7.05025682	      6.66191256	      2.77029297	     -2.41367132	     -0.16982224
      1.43500000	    -10.59018838	      1.86659228	     -3.69041907	     -0.23407102	      1.26486944	     -0.93173029	     33.79740473	      2.91415810	     18.90707318	     -6.78181317	     -2.80390932	    -17.41607171	      0.26834765	     -3.53896320	      9.14925050	      3.94340632	     -2.58173079	     10.73466439	     -6.38078012	      7.03231794	      3.01490028	     -2.63483040	     -0.02497906
      1.44000000	    -10.74144876	      2.05601932	     -3.85266076	     -0.22830323	      1.26364452	     -0.93089481	     33.93349179	      2.85426225	     19.30183875	     -5.94141539	     -2.95804108	    -16.95632054	      0.16776517	     -3.80180539	      9.34466047	      3.35379825	     -2.56589708	     10.92036683	     -5.97210621	      7.28767401	      3.27384671	     -2.80994910	      0.18677709
      1.44500000	    -10.87953597	      2.24521123	     -3.98039281	     -0.22259704	      1.26244963	     -0.93006279	     34.08190040	      2.79511554	     19.63636553	     -5.24084786	     -3.09747361	    -16.50011385	      0.02223548	     -4.03885082	      9.53333098	      2.80133649	     -2.61979155	     11.20190304	     -5.39565061	      7.62860283	      3.49632935	     -2.98896600	      0.30217159
      1.45000000	    -11.02426363	      2.40323798	     -4.09879342	     -0.21683052	      1.26129474	     -0.92926970	     34.24428298	      2.77729436	     19.86801692	     -4.66361005	     -3.19711881	    -16.06771033	     -0.09344288	     -4.27304321	      9.69181131	      2.28467548	     -2.67088237	     11.38454782	     -4.97826079	      7.89653705	      3.73787079	     -3.12857493	      0.45354201
